<svg xmlns="http://www.w3.org/2000/svg" viewBox="0 0 24 24">
  <symbol id="uiux" viewBox="0 0 24 24">
    <rect x="3" y="4" width="18" height="14" rx="2" ry="2"/>
    <circle cx="7" cy="8" r="1.5"/>
    <path d="M11 8h7"/>
    <path d="M6 12h6"/>
    <path d="M6 16h10"/>
  </symbol>
  <symbol id="design" viewBox="0 0 24 24">
    <circle cx="12" cy="12" r="8"/>
    <circle cx="9" cy="10" r="1"/>
    <circle cx="13" cy="8" r="1"/>
    <circle cx="15" cy="12" r="1"/>
  </symbol>
  <symbol id="dev" viewBox="0 0 24 24">
    <path d="M8 7l-5 5 5 5"/>
    <path d="M16 7l5 5-5 5"/>
    <path d="M12 5l-2 14"/>
  </symbol>
  <symbol id="maintenance" viewBox="0 0 24 24">
    <path d="M21 3l-6 6"/>
    <path d="M3 21l6-6"/>
    <path d="M14 4l6 6-4 4-6-6z"/>
  </symbol>
  <symbol id="ecommerce" viewBox="0 0 24 24">
    <path d="M6 7h12l-1 10H7L6 7z"/>
    <path d="M9 7a3 3 0 0 1 6 0"/>
    <circle cx="9" cy="19" r="1"/>
    <circle cx="15" cy="19" r="1"/>
  </symbol>
  <symbol id="optimize" viewBox="0 0 24 24">
    <circle cx="12" cy="12" r="8"/>
    <path d="M12 12l5-2"/>
    <path d="M7 14a5 5 0 0 1 10 0"/>
  </symbol>
  <symbol id="responsive" viewBox="0 0 24 24">
    <rect x="3" y="4" width="14" height="10" rx="2"/>
    <rect x="18" y="9" width="4" height="8" rx="1"/>
    <path d="M7 18h8"/>
  </symbol>
  <symbol id="rocket" viewBox="0 0 24 24">
    <path d="M12 2c3 1 6 4 7 7-3 1-6 4-7 7-1-3-4-6-7-7 3-3 6-6 7-7z"/>
    <circle cx="12" cy="9" r="2"/>
    <path d="M9 14l-2 4 4-2"/>
  </symbol>
  <symbol id="trophy" viewBox="0 0 24 24">
    <path d="M6 4h12v3a5 5 0 0 1-5 5h-2a5 5 0 0 1-5-5V4z"/>
    <path d="M9 19h6"/>
    <path d="M8 22h8"/>
    <path d="M4 6h2v2a3 3 0 0 1-3 3"/>
    <path d="M20 6h-2v2a3 3 0 0 0 3 3"/>
  </symbol>
  <symbol id="seedling" viewBox="0 0 24 24">
    <path d="M12 20V10"/>
    <path d="M12 10c-4 0-6 2-7 5 4 0 7-2 7-5z"/>
    <path d="M12 10c4 0 6-2 7-5-4 0-7 2-7 5z"/>
  </symbol>
  <symbol id="phone" viewBox="0 0 24 24">
    <path d="M6 2h6l2 4-3 2c1 2 3 4 5 5l2-3 4 2v6c-8 1-16-7-16-16z"/>
  </symbol>
  <symbol id="share" viewBox="0 0 24 24">
    <circle cx="18" cy="5" r="3"/>
    <circle cx="6" cy="12" r="3"/>
    <circle cx="18" cy="19" r="3"/>
    <path d="M8.5 11l7-4"/>
    <path d="M8.5 13l7 4"/>
  </symbol>
  <symbol id="clock" viewBox="0 0 24 24">
    <circle cx="12" cy="12" r="9"/>
    <path d="M12 7v6l4 2"/>
  </symbol>
  <symbol id="globe" viewBox="0 0 24 24">
    <circle cx="12" cy="12" r="9"/>
    <path d="M3 12h18"/>
    <path d="M12 3a14 14 0 0 0 0 18"/>
    <path d="M12 3a14 14 0 0 1 0 18"/>
  </symbol>
  <symbol id="github" viewBox="0 0 24 24">
    <path d="M12 2a10 10 0 0 0-3 19c.5.1.7-.2.7-.5v-2c-3 .7-3.6-1.3-3.6-1.3-.5-1.2-1.1-1.5-1.1-1.5-.9-.6.1-.6.1-.6 1 .1 1.5 1 1.5 1 .9 1.5 2.4 1.1 3 .8.1-.7.4-1.1.7-1.3-2.4-.3-5-1.2-5-5.4 0-1.2.4-2.1 1.1-2.9-.1-.3-.5-1.5.1-3.1 0 0 .9-.3 3 .1a10.4 10.4 0 0 1 5.4 0c2.1-.4 3-.1 3-.1.6 1.6.2 2.8.1 3.1.7.8 1.1 1.7 1.1 2.9 0 4.2-2.6 5.1-5 5.4.4.3.8 1 .8 2.1v3.1c0 .3.2.6.7.5A10 10 0 0 0 12 2z"/>
  </symbol>
  <symbol id="linkedin" viewBox="0 0 24 24">
    <circle cx="8" cy="9" r="1"/>
    <path d="M7 17h2v-6H7z"/>
    <path d="M12 17h2v-3a2 2 0 0 1 4 0v3h2v-4a4 4 0 0 0-8 0z"/>
  </symbol>
  <symbol id="copy" viewBox="0 0 24 24">
    <rect x="9" y="9" width="10" height="10" rx="2"/>
    <rect x="5" y="5" width="10" height="10" rx="2"/>
  </symbol>
</svg>
